<svg xmlns="http://www.w3.org/2000/svg" viewBox="0 0 38 36">
    <style>
    .cls-1 {
        fill: #737778;
        fill-rule: evenodd;
    }
    </style>
    <g>
        <path d="M36.000,19.470 C36.000,20.298 35.329,20.970 34.500,20.970 L28.000,20.970 L28.000,28.970 C28.000,31.179 26.209,32.970 24.000,32.970 L12.000,32.970 C9.791,32.970 8.000,31.179 8.000,28.970 L8.000,20.970 L1.500,20.970 C0.672,20.970 -0.000,20.298 -0.000,19.470 C-0.000,19.277 0.043,19.095 0.110,18.925 C-0.156,17.730 0.161,16.433 1.083,15.503 L15.397,1.063 C16.834,-0.388 19.165,-0.388 20.602,1.063 L34.917,15.503 C35.839,16.433 36.155,17.729 35.890,18.924 C35.957,19.094 36.000,19.276 36.000,19.470 ZM31.537,16.046 L20.094,4.503 C18.945,3.344 17.082,3.344 15.933,4.503 L4.491,16.046 C3.960,16.582 3.678,17.270 3.641,17.970 L8.000,17.970 L9.000,17.970 C10.105,17.970 11.000,18.865 11.000,19.970 L11.000,20.970 L11.000,26.939 C11.000,28.595 12.343,29.939 14.000,29.939 L22.000,29.939 C23.657,29.939 25.000,28.595 25.000,26.939 L25.000,20.970 L25.000,19.970 C25.000,18.865 25.895,17.970 27.000,17.970 L28.000,17.970 L32.387,17.970 C32.350,17.270 32.068,16.582 31.537,16.046 Z" transform="translate(1 1.51)" class="cls-1" />
    </g>
</svg>
